<svg width="24" height="24" viewBox="0 0 24 24" fill="none" xmlns="http://www.w3.org/2000/svg">
<path fill-rule="evenodd" clip-rule="evenodd" d="M8.625 20.1C8.28 20.1 7.935 19.965 7.665 19.71C7.4131 19.457 7.27168 19.1145 7.27168 18.7575C7.27168 18.4005 7.4131 18.058 7.665 17.805L13.47 12L7.665 6.21C7.4131 5.957 7.27168 5.61452 7.27168 5.2575C7.27168 4.90048 7.4131 4.558 7.665 4.305C7.918 4.0531 8.26048 3.91168 8.6175 3.91168C8.97452 3.91168 9.317 4.0531 9.57 4.305L16.32 11.055C16.5719 11.308 16.7133 11.6505 16.7133 12.0075C16.7133 12.3645 16.5719 12.707 16.32 12.96L9.57 19.71C9.315 19.965 8.97 20.1 8.625 20.1Z" fill="currentColor"/>
</svg>
