<svg width="24" height="24" viewBox="0 0 24 24" fill="none" xmlns="http://www.w3.org/2000/svg">
<path fill-rule="evenodd" clip-rule="evenodd" d="M3.8675 10.7997H17.9035L12.4525 5.34874C11.9835 4.87974 11.9835 4.11974 12.4525 3.65174C12.9215 3.18274 13.6805 3.18274 14.1495 3.65174L21.6495 11.1517C21.6525 11.1537 21.6535 11.1577 21.6565 11.1607C21.7635 11.2697 21.8495 11.3987 21.9085 11.5407C22.0305 11.8347 22.0305 12.1647 21.9085 12.4587C21.8495 12.6017 21.7635 12.7297 21.6565 12.8387C21.6535 12.8417 21.6525 12.8457 21.6495 12.8487L14.1495 20.3487C13.9155 20.5827 13.6085 20.6997 13.3015 20.6997C12.9935 20.6997 12.6865 20.5827 12.4525 20.3487C11.9835 19.8797 11.9835 19.1197 12.4525 18.6517L17.9035 13.1997H3.8675C3.2045 13.1997 2.6675 12.6627 2.6675 11.9997C2.6675 11.3377 3.2045 10.7997 3.8675 10.7997Z" fill="currentColor"/>
</svg>
