<svg width="24" height="24" viewBox="0 0 24 24" fill="none" xmlns="http://www.w3.org/2000/svg">
<path fill-rule="evenodd" clip-rule="evenodd" d="M14.771 4.6C15.0175 4.608 15.2512 4.71154 15.4227 4.88874C15.5943 5.06593 15.6902 5.30288 15.6902 5.5495C15.6902 5.79612 15.5943 6.03307 15.4227 6.21027C15.2512 6.38746 15.0175 6.491 14.771 6.499C14.5245 6.491 14.2908 6.38746 14.1193 6.21027C13.9477 6.03307 13.8518 5.79612 13.8518 5.5495C13.8518 5.30288 13.9477 5.06593 14.1193 4.88874C14.2908 4.71154 14.5245 4.608 14.771 4.6ZM3.5 6.649H11.83C12.0532 7.24951 12.4544 7.76756 12.9799 8.1339C13.5055 8.50023 14.1304 8.69739 14.771 8.699C15.4115 8.69719 16.0361 8.49994 16.5615 8.13361C17.0868 7.76729 17.4879 7.24935 17.711 6.649H20.5C20.7917 6.649 21.0715 6.53311 21.2778 6.32682C21.4841 6.12053 21.6 5.84074 21.6 5.549C21.6 5.25726 21.4841 4.97747 21.2778 4.77118C21.0715 4.56489 20.7917 4.449 20.5 4.449H17.711C17.4877 3.84884 17.0866 3.33111 16.5613 2.96498C16.0359 2.59884 15.4113 2.40174 14.771 2.4C14.1306 2.40182 13.5059 2.59894 12.9804 2.96505C12.4549 3.33116 12.0536 3.84884 11.83 4.449H3.5C3.20826 4.449 2.92847 4.56489 2.72218 4.77118C2.51589 4.97747 2.4 5.25726 2.4 5.549C2.4 5.84074 2.51589 6.12053 2.72218 6.32682C2.92847 6.53311 3.20826 6.649 3.5 6.649ZM20.5 10.899H3.5C3.20826 10.899 2.92847 11.0149 2.72218 11.2212C2.51589 11.4275 2.4 11.7073 2.4 11.999C2.4 12.2907 2.51589 12.5705 2.72218 12.7768C2.92847 12.9831 3.20826 13.099 3.5 13.099H20.5C20.7917 13.099 21.0715 12.9831 21.2778 12.7768C21.4841 12.5705 21.6 12.2907 21.6 11.999C21.6 11.7073 21.4841 11.4275 21.2778 11.2212C21.0715 11.0149 20.7917 10.899 20.5 10.899ZM9.229 19.4C8.98485 19.3888 8.75441 19.2839 8.58559 19.1072C8.41678 18.9304 8.32258 18.6954 8.32258 18.451C8.32258 18.2066 8.41678 17.9716 8.58559 17.7948C8.75441 17.6181 8.98485 17.5132 9.229 17.502C9.47549 17.51 9.70921 17.6135 9.88074 17.7907C10.0523 17.9679 10.1482 18.2049 10.1482 18.4515C10.1482 18.6981 10.0523 18.9351 9.88074 19.1123C9.70921 19.2895 9.47549 19.393 9.229 19.401M20.5 17.35H12.17C11.9468 16.7495 11.5456 16.2314 11.0201 15.8651C10.4945 15.4988 9.86964 15.3016 9.229 15.3C8.58854 15.3018 7.96388 15.4991 7.43852 15.8654C6.91316 16.2317 6.51212 16.7497 6.289 17.35H3.5C3.20826 17.35 2.92847 17.4659 2.72218 17.6722C2.51589 17.8785 2.4 18.1583 2.4 18.45C2.4 18.7417 2.51589 19.0215 2.72218 19.2278C2.92847 19.4341 3.20826 19.55 3.5 19.55H6.289C6.51212 20.1503 6.91316 20.6683 7.43852 21.0346C7.96388 21.4009 8.58854 21.5982 9.229 21.6C9.86957 21.5981 10.4943 21.4008 11.0198 21.0345C11.5453 20.6682 11.9466 20.1503 12.17 19.55H20.5C20.7917 19.55 21.0715 19.4341 21.2778 19.2278C21.4841 19.0215 21.6 18.7417 21.6 18.45C21.6 18.1583 21.4841 17.8785 21.2778 17.6722C21.0715 17.4659 20.7917 17.35 20.5 17.35Z" fill="currentColor"/>
</svg>
