<svg width="24" height="24" viewBox="0 0 24 24" fill="none" xmlns="http://www.w3.org/2000/svg">
<path fill-rule="evenodd" clip-rule="evenodd" d="M4.118 6.2H20.118C20.4363 6.2 20.7415 6.07357 20.9665 5.84853C21.1916 5.62349 21.318 5.31826 21.318 5C21.318 4.68174 21.1916 4.37652 20.9665 4.15148C20.7415 3.92643 20.4363 3.8 20.118 3.8H4.118C3.79974 3.8 3.49451 3.92643 3.26947 4.15148C3.04443 4.37652 2.918 4.68174 2.918 5C2.918 5.31826 3.04443 5.62349 3.26947 5.84853C3.49451 6.07357 3.79974 6.2 4.118 6.2ZM20.118 10.8H4.118C3.79974 10.8 3.49451 10.9264 3.26947 11.1515C3.04443 11.3765 2.918 11.6817 2.918 12C2.918 12.3183 3.04443 12.6235 3.26947 12.8485C3.49451 13.0736 3.79974 13.2 4.118 13.2H20.118C20.4363 13.2 20.7415 13.0736 20.9665 12.8485C21.1916 12.6235 21.318 12.3183 21.318 12C21.318 11.6817 21.1916 11.3765 20.9665 11.1515C20.7415 10.9264 20.4363 10.8 20.118 10.8ZM20.118 17.8H4.118C3.96041 17.8 3.80437 17.831 3.65878 17.8913C3.51319 17.9517 3.3809 18.04 3.26947 18.1515C3.15804 18.2629 3.06965 18.3952 3.00934 18.5408C2.94904 18.6864 2.918 18.8424 2.918 19C2.918 19.1576 2.94904 19.3136 3.00934 19.4592C3.06965 19.6048 3.15804 19.7371 3.26947 19.8485C3.3809 19.96 3.51319 20.0484 3.65878 20.1087C3.80437 20.169 3.96041 20.2 4.118 20.2H20.118C20.2756 20.2 20.4316 20.169 20.5772 20.1087C20.7228 20.0484 20.8551 19.96 20.9665 19.8485C21.078 19.7371 21.1663 19.6048 21.2267 19.4592C21.287 19.3136 21.318 19.1576 21.318 19C21.318 18.8424 21.287 18.6864 21.2267 18.5408C21.1663 18.3952 21.078 18.2629 20.9665 18.1515C20.8551 18.04 20.7228 17.9517 20.5772 17.8913C20.4316 17.831 20.2756 17.8 20.118 17.8Z" fill="currentColor"/>
</svg>
